<?xml version="1.0" encoding="utf-8"?>
<!-- Generator: Adobe Illustrator 16.0.3, SVG Export Plug-In . SVG Version: 6.00 Build 0)  -->
<!DOCTYPE svg PUBLIC "-//W3C//DTD SVG 1.1//EN" "http://www.w3.org/Graphics/SVG/1.1/DTD/svg11.dtd">
<svg version="1.1" xmlns="http://www.w3.org/2000/svg" xmlns:xlink="http://www.w3.org/1999/xlink" x="0px" y="0px" width="640px"
	 height="640px" viewBox="0 0 640 640" enable-background="new 0 0 640 640" xml:space="preserve">
<g id="Ebene_5">
	<polygon fill="#FFFFFF" points="78.755,97.077 78.755,116.744 42.421,116.744 44.088,264.41 63.088,276.077 295.755,276.077 
		313.088,261.077 310.755,100.41 	"/>
	<g>
		<path fill="#808285" d="M319.049,88.606V258.25c0,7.441-2.604,13.766-7.813,18.973c-5.21,5.21-11.533,7.813-18.973,7.813H60.12
			c-7.441,0-13.766-2.603-18.973-7.813c-5.21-5.207-7.813-11.531-7.813-18.973V106.464h35.714V88.606H319.049z M69.049,258.25
			V124.321H51.191V258.25c0,2.419,0.883,4.512,2.651,6.277c1.766,1.769,3.858,2.651,6.277,2.651c2.418,0,4.511-0.883,6.278-2.651
			C68.164,262.762,69.049,260.669,69.049,258.25z M301.191,258.25V106.464H86.906V258.25c0,3.069-0.513,6.047-1.535,8.929h206.893
			c2.417,0,4.51-0.883,6.277-2.651C300.307,262.762,301.191,260.669,301.191,258.25z M201.921,231.464v17.857h-97.157v-17.857
			H201.921z M283.335,124.321v17.857h-63.557v-17.857H283.335z M283.335,160.035v17.857h-63.557v-17.857H283.335z M283.335,195.75
			v17.856h-63.557V195.75H283.335z M283.335,231.464v17.857h-63.557v-17.857H283.335z"/>
	</g>
</g>
<g id="Ebene_6">
	<g>
		<rect x="103.011" y="129.091" fill="#FFFFFF" width="103.28" height="79.446"/>
		<g>
			<path fill="#97B314" d="M209.355,133.61v70.596c0,2.556-0.91,4.741-2.729,6.562c-1.82,1.818-4.006,2.728-6.562,2.728h-92.89
				c-2.555,0-4.741-0.909-6.561-2.728c-1.819-1.82-2.729-4.006-2.729-6.562V133.61c0-2.556,0.909-4.741,2.729-6.562
				c1.819-1.818,4.006-2.728,6.561-2.728h92.89c2.556,0,4.741,0.909,6.562,2.728C208.445,128.869,209.355,131.055,209.355,133.61z
				 M200.065,131.752h-92.89c-0.503,0-0.938,0.185-1.306,0.553c-0.369,0.367-0.553,0.803-0.553,1.306v70.596
				c0,0.503,0.184,0.939,0.553,1.306c0.367,0.369,0.803,0.553,1.306,0.553h92.89c0.503,0,0.938-0.184,1.307-0.553
				c0.367-0.366,0.552-0.803,0.552-1.306V133.61c0-0.503-0.185-0.938-0.552-1.306C201.003,131.937,200.568,131.752,200.065,131.752z
				 M131.792,142.435c2.167,2.168,3.251,4.8,3.251,7.896c0,3.097-1.084,5.729-3.251,7.896c-2.168,2.169-4.8,3.252-7.896,3.252
				c-3.098,0-5.729-1.083-7.896-3.252c-2.168-2.167-3.251-4.799-3.251-7.896c0-3.096,1.083-5.728,3.251-7.896
				s4.799-3.251,7.896-3.251C126.992,139.184,129.624,140.267,131.792,142.435z M194.492,172.624v26.009h-81.743v-11.146
				l18.578-18.578l9.29,9.29l29.724-29.727L194.492,172.624z"/>
		</g>
	</g>
</g>
<g id="Ebene_8">
	<g>
		<path fill="#97B314" d="M440.014,259.607c0,8.036-1.155,15.552-3.461,22.545c-2.309,6.996-4.91,12.688-7.813,17.076
			c-2.901,4.391-6.996,8.817-12.276,13.281c-5.284,4.464-9.563,7.701-12.835,9.71c-3.275,2.009-7.813,4.652-13.615,7.924
			c-6.104,3.426-11.199,8.26-15.291,14.51c-4.094,6.25-6.139,11.236-6.139,14.955c0,2.531-0.893,4.949-2.678,7.254
			c-1.786,2.309-3.871,3.46-6.25,3.46h-53.572c-2.232,0-4.129-1.374-5.692-4.13c-1.563-2.752-2.344-5.541-2.344-8.37v-10.044
			c0-12.351,4.834-23.996,14.509-34.934c9.671-10.938,20.313-19.008,31.92-24.219c8.778-4.018,15.028-8.182,18.75-12.5
			c3.718-4.314,5.58-9.968,5.58-16.964c0-6.25-3.46-11.753-10.38-16.518c-6.919-4.761-14.92-7.143-23.995-7.143
			c-9.675,0-17.71,2.159-24.107,6.473c-5.211,3.721-13.17,12.277-23.884,25.669c-1.936,2.382-4.241,3.572-6.919,3.572
			c-1.786,0-3.648-0.593-5.581-1.786l-36.607-27.902c-1.936-1.486-3.09-3.348-3.46-5.581c-0.373-2.232,0.035-4.314,1.228-6.25
			c23.807-39.582,58.332-59.375,103.571-59.375c11.903,0,23.884,2.309,35.938,6.92c12.054,4.614,22.914,10.791,32.59,18.526
			c9.671,7.739,17.557,17.226,23.66,28.46C436.961,235.465,440.014,247.257,440.014,259.607z M369.478,393.535v53.572
			c0,2.382-0.894,4.464-2.679,6.25c-1.785,1.785-3.871,2.678-6.25,2.678h-53.571c-2.382,0-4.464-0.893-6.25-2.678
			c-1.786-1.786-2.679-3.868-2.679-6.25v-53.572c0-2.378,0.893-4.464,2.679-6.25c1.786-1.785,3.868-2.678,6.25-2.678h53.571
			c2.379,0,4.465,0.893,6.25,2.678C368.584,389.071,369.478,391.157,369.478,393.535z"/>
	</g>
</g>
<g id="Ebene_9">
	<rect x="351.754" y="349.077" fill="#FFFFFF" width="244.667" height="156.666"/>
	<g>
		<path fill="#808285" d="M606.665,359.429v133.929c0,6.139-2.186,11.394-6.557,15.765c-4.372,4.373-9.625,6.557-15.764,6.557
			h-102.68v17.857h49.107c1.302,0,2.372,0.418,3.209,1.256c0.838,0.837,1.256,1.904,1.256,3.209v8.928
			c0,1.302-0.418,2.372-1.256,3.209c-0.837,0.837-1.907,1.256-3.209,1.256h-116.07c-1.305,0-2.373-0.419-3.209-1.256
			c-0.838-0.837-1.256-1.907-1.256-3.209v-8.928c0-1.305,0.418-2.372,1.256-3.209c0.836-0.838,1.904-1.256,3.209-1.256h49.106
			v-17.857H361.13c-6.139,0-11.395-2.184-15.764-6.557c-4.373-4.371-6.558-9.626-6.558-15.765V359.429
			c0-6.139,2.185-11.392,6.558-15.764c4.369-4.371,9.625-6.558,15.764-6.558h223.215c6.139,0,11.392,2.187,15.764,6.558
			C604.479,348.037,606.665,353.29,606.665,359.429z M588.809,493.357V359.429c0-1.207-0.442-2.254-1.325-3.139
			c-0.885-0.883-1.932-1.325-3.139-1.325H361.13c-1.209,0-2.256,0.442-3.139,1.325c-0.885,0.885-1.326,1.932-1.326,3.139v133.929
			c0,1.21,0.441,2.257,1.326,3.14c0.883,0.885,1.93,1.324,3.139,1.324h223.215c1.207,0,2.254-0.439,3.139-1.324
			C588.366,495.614,588.809,494.567,588.809,493.357z"/>
	</g>
	<g>
		<rect x="422.126" y="386.575" fill="#FFFFFF" width="103.28" height="79.446"/>
		<g>
			<path fill="#97B314" d="M528.471,391.096v70.596c0,2.555-0.909,4.74-2.728,6.561c-1.82,1.818-4.007,2.729-6.562,2.729h-92.89
				c-2.556,0-4.742-0.91-6.562-2.729c-1.819-1.82-2.728-4.006-2.728-6.561v-70.596c0-2.557,0.908-4.742,2.728-6.563
				c1.819-1.818,4.006-2.728,6.562-2.728h92.89c2.555,0,4.741,0.909,6.562,2.728C527.562,386.354,528.471,388.539,528.471,391.096z
				 M519.182,389.236h-92.89c-0.503,0-0.938,0.186-1.306,0.553c-0.369,0.367-0.553,0.803-0.553,1.307v70.596
				c0,0.502,0.184,0.938,0.553,1.305c0.367,0.369,0.803,0.553,1.306,0.553h92.89c0.502,0,0.938-0.184,1.307-0.553
				c0.367-0.366,0.552-0.803,0.552-1.305v-70.596c0-0.504-0.185-0.939-0.552-1.307C520.119,389.422,519.684,389.236,519.182,389.236
				z M450.907,399.919c2.167,2.169,3.252,4.8,3.252,7.896c0,3.098-1.085,5.729-3.252,7.896s-4.8,3.251-7.896,3.251
				c-3.098,0-5.728-1.083-7.896-3.251s-3.251-4.799-3.251-7.896c0-3.096,1.083-5.727,3.251-7.896
				c2.168-2.167,4.798-3.251,7.896-3.251C446.107,396.668,448.74,397.752,450.907,399.919z M513.607,430.109v26.008h-81.742v-11.146
				l18.578-18.578l9.289,9.29l29.725-29.726L513.607,430.109z"/>
		</g>
	</g>
</g>
</svg>
