<?xml version="1.0" encoding="utf-8"?>
<!-- Generator: Adobe Illustrator 15.1.0, SVG Export Plug-In . SVG Version: 6.00 Build 0)  -->
<!DOCTYPE svg PUBLIC "-//W3C//DTD SVG 1.1//EN" "http://www.w3.org/Graphics/SVG/1.1/DTD/svg11.dtd">
<svg version="1.1" id="konstruktion" xmlns="http://www.w3.org/2000/svg" xmlns:xlink="http://www.w3.org/1999/xlink" x="0px"
	 y="0px" width="268.634px" height="218.219px" viewBox="0 0 268.634 218.219" enable-background="new 0 0 268.634 218.219"
	 xml:space="preserve">
<g>
	<path fill="#FFFFFF" d="M46.495,209.982c0,1.751-0.319,3.156-0.956,4.217c-0.637,1.061-1.387,1.92-2.25,2.577
		c-1.225,0.962-2.938,1.442-5.142,1.442h-9.222v-17.088h7.102c1.068,0,1.982,0.056,2.743,0.166c0.76,0.111,1.444,0.268,2.053,0.469
		c0.608,0.201,1.126,0.428,1.553,0.678c0.427,0.251,0.81,0.521,1.147,0.808c0.583,0.477,1.095,1.04,1.535,1.689
		c0.439,0.649,0.789,1.401,1.048,2.256C46.366,208.052,46.495,208.98,46.495,209.982z M41.255,209.761
		c0-1.389-0.265-2.472-0.795-3.248c-0.53-0.777-1.167-1.297-1.911-1.56c-0.744-0.264-1.502-0.395-2.275-0.395H34.08v10.122h2.194
		c1.348,0,2.516-0.321,3.502-0.962C40.762,213.077,41.255,211.758,41.255,209.761z"/>
	<path fill="#FFFFFF" d="M62.56,218.219H49.676v-17.088H62.35v3.428H54.83v3.131h7.176v3.44H54.83v3.649h7.73V218.219z"/>
	<path fill="#FFFFFF" d="M83.815,210.562c0,1.463-0.273,2.71-0.82,3.742c-0.546,1.031-1.27,1.847-2.17,2.447
		c-0.9,0.6-1.87,1.031-2.91,1.294c-1.04,0.264-2.077,0.395-3.113,0.395c-1.447,0-2.854-0.246-4.223-0.739
		c-1.369-0.493-2.513-1.332-3.434-2.516c-0.92-1.184-1.381-2.725-1.381-4.623v-9.432h5.142v8.1c0,1.127,0.162,2.058,0.487,2.793
		s0.777,1.274,1.356,1.615c0.579,0.341,1.264,0.512,2.053,0.512c0.756,0,1.426-0.169,2.009-0.506
		c0.584-0.337,1.038-0.871,1.363-1.603c0.324-0.731,0.487-1.66,0.487-2.786v-8.125h5.153V210.562z"/>
	<path fill="#FFFFFF" d="M104.245,205.285h-6.263v12.934H92.84v-12.934h-6.263v-4.154h17.667V205.285z"/>
	<path fill="#FFFFFF" d="M119.2,213.25c0,1.068-0.273,1.993-0.82,2.774c-0.547,0.78-1.309,1.379-2.287,1.794
		c-0.979,0.415-2.1,0.622-3.366,0.622c-0.353,0-0.787-0.022-1.3-0.067c-0.514-0.046-1.196-0.171-2.047-0.376
		c-0.851-0.206-1.736-0.51-2.657-0.913v-4.191c0.863,0.534,1.711,0.979,2.546,1.332c0.834,0.353,1.728,0.529,2.682,0.529
		c0.879,0,1.449-0.146,1.708-0.438c0.259-0.291,0.388-0.564,0.388-0.819c0-0.461-0.222-0.849-0.666-1.165s-1.089-0.644-1.936-0.98
		c-0.937-0.395-1.759-0.824-2.466-1.288c-0.707-0.465-1.284-1.046-1.732-1.745c-0.448-0.698-0.672-1.524-0.672-2.479
		c0-0.92,0.226-1.752,0.678-2.496c0.452-0.744,1.142-1.338,2.071-1.781c0.929-0.444,2.063-0.666,3.402-0.666
		c0.954,0,1.835,0.093,2.645,0.277c0.809,0.185,1.477,0.393,2.003,0.623c0.526,0.229,0.888,0.41,1.085,0.542v4.007
		c-0.699-0.501-1.478-0.949-2.336-1.344s-1.777-0.592-2.755-0.592c-0.642,0-1.106,0.123-1.394,0.37
		c-0.288,0.246-0.432,0.551-0.432,0.912c0,0.337,0.144,0.629,0.432,0.875c0.288,0.247,0.802,0.547,1.541,0.9
		c1.315,0.616,2.367,1.171,3.156,1.664s1.408,1.062,1.856,1.708C118.976,211.485,119.2,212.288,119.2,213.25z"/>
	<path fill="#FFFFFF" d="M138.001,216.937c-0.707,0.37-1.43,0.666-2.17,0.888s-1.486,0.38-2.238,0.475s-1.53,0.142-2.336,0.142
		c-1.488,0-2.821-0.205-4.001-0.616c-1.179-0.411-2.203-1.018-3.07-1.818c-0.867-0.802-1.517-1.738-1.948-2.812
		c-0.432-1.072-0.647-2.25-0.647-3.532c0-1.471,0.255-2.76,0.764-3.865c0.51-1.105,1.223-2.023,2.139-2.755s1.96-1.272,3.132-1.622
		c1.171-0.349,2.406-0.523,3.705-0.523c1.939,0,4.139,0.432,6.596,1.295v4.537c-0.847-0.526-1.683-0.964-2.509-1.313
		s-1.798-0.524-2.916-0.524c-0.995,0-1.923,0.197-2.786,0.592c-0.863,0.395-1.558,0.958-2.083,1.689
		c-0.526,0.731-0.789,1.586-0.789,2.564c0,0.863,0.23,1.654,0.69,2.373c0.46,0.72,1.099,1.291,1.917,1.714
		c0.818,0.424,1.74,0.635,2.767,0.635c0.831,0,1.615-0.101,2.355-0.302s1.362-0.426,1.868-0.672c0.505-0.246,1.024-0.538,1.56-0.875
		V216.937z"/>
	<path fill="#FFFFFF" d="M159.515,218.219h-5.141v-6.67h-7.756v6.67h-5.152v-17.088h5.152v6.275h7.756v-6.275h5.141V218.219z"/>
	<path fill="#FFFFFF" d="M176.789,218.219h-12.982v-17.088h5.153v12.994h7.829V218.219z"/>
	<path fill="#FFFFFF" d="M198.193,218.219h-5.277l-1.394-3.465h-7.423l-1.417,3.465h-5.277l7.558-17.088h5.696L198.193,218.219z
		 M190.338,211.783l-2.503-6.238l-2.527,6.238H190.338z"/>
	<path fill="#FFFFFF" d="M219.015,218.219h-4.586l-8.863-9.518v9.518h-5.105v-17.088h4.574l8.84,9.469v-9.469h5.141V218.219z"/>
	<path fill="#FFFFFF" d="M240.875,209.982c0,1.751-0.318,3.156-0.955,4.217s-1.387,1.92-2.25,2.577
		c-1.225,0.962-2.938,1.442-5.141,1.442h-9.223v-17.088h7.102c1.068,0,1.982,0.056,2.744,0.166c0.76,0.111,1.443,0.268,2.053,0.469
		c0.607,0.201,1.125,0.428,1.553,0.678c0.428,0.251,0.811,0.521,1.146,0.808c0.584,0.477,1.096,1.04,1.535,1.689
		s0.789,1.401,1.049,2.256C240.746,208.052,240.875,208.98,240.875,209.982z M235.636,209.761c0-1.389-0.266-2.472-0.797-3.248
		c-0.529-0.777-1.166-1.297-1.91-1.56c-0.744-0.264-1.502-0.395-2.275-0.395h-2.193v10.122h2.193c1.35,0,2.516-0.321,3.502-0.962
		C235.142,213.077,235.636,211.758,235.636,209.761z"/>
</g>
<circle fill="#FFFFFF" cx="134.167" cy="23.75" r="23.736"/>
<g>
	<path fill="#FFFFFF" d="M129.501,61.461l-23.038-23.03c-9.235,7.852-15.103,19.548-15.103,32.62
		c0,22.062,16.695,40.222,38.141,42.547V61.461z"/>
	<path fill="#FFFFFF" d="M161.913,38.468l-22.972,22.966v52.15c21.393-2.375,38.031-20.508,38.031-42.533
		C176.972,57.998,171.124,46.319,161.913,38.468z"/>
</g>
<g>
	<path fill="#FFFFFF" d="M181.913,18.475l-13.6,13.595c10.835,9.499,17.678,23.44,17.678,38.981
		c0,28.621-23.202,51.823-51.824,51.823c-28.621,0-51.823-23.202-51.823-51.823c0-15.562,6.86-29.52,17.72-39.019L86.474,18.448
		C72.158,31.439,63.167,50.194,63.167,71.05c0,39.218,31.793,71.013,71.012,71.013s71.012-31.795,71.012-71.013
		C205.19,50.209,196.211,31.465,181.913,18.475z"/>
</g>
<g>
	<path fill="#FFFFFF" d="M49.516,161.22L37.152,190.15h-4.987l-7.418-16.835l-7.603,16.835h-5.028L0,161.22h8.922l5.934,15.825
		l6.8-15.825h6.161l6.676,15.825l6.202-15.825H49.516z"/>
	<path fill="#FFFFFF" d="M62.126,189.779h-8.613v-28.56h8.613V189.779z"/>
	<path fill="#FFFFFF" d="M99.38,189.779H88.872l-10.921-13.373v13.373h-8.613v-28.56h8.613v12.775l10.344-12.775h9.355
		l-10.633,13.373L99.38,189.779z"/>
	<path fill="#FFFFFF" d="M111.785,189.779h-8.613v-28.56h8.613V189.779z"/>
	<path fill="#FFFFFF" d="M152.212,189.779H143.6v-16.546l-7.769,9.581h-0.68l-7.789-9.581v16.546h-8.366v-28.56h7.81l8.778,10.715
		l8.819-10.715h7.809V189.779z"/>
	<path fill="#FFFFFF" d="M180.958,189.779h-21.532v-28.56h21.182v5.729h-12.569v5.234h11.993v5.749h-11.993v6.099h12.92V189.779z"/>
	<path fill="#FFFFFF" d="M216.09,176.015c0,2.926-0.533,5.275-1.598,7.047c-1.064,1.772-2.317,3.208-3.761,4.307
		c-2.047,1.607-4.91,2.411-8.592,2.411h-15.413v-28.56h11.868c1.786,0,3.314,0.093,4.586,0.278c1.27,0.186,2.413,0.447,3.43,0.783
		c1.017,0.337,1.883,0.715,2.597,1.134s1.353,0.868,1.917,1.35c0.975,0.797,1.83,1.737,2.564,2.822
		c0.735,1.086,1.319,2.343,1.751,3.771C215.874,172.787,216.09,174.339,216.09,176.015z M207.333,175.644
		c0-2.321-0.442-4.131-1.329-5.429c-0.887-1.299-1.951-2.167-3.193-2.607c-1.244-0.439-2.512-0.659-3.803-0.659h-3.668v16.917h3.668
		c2.254,0,4.204-0.535,5.853-1.607C206.508,181.187,207.333,178.982,207.333,175.644z"/>
	<path fill="#FFFFFF" d="M230.06,189.779h-8.612v-28.56h8.612V189.779z"/>
	<path fill="#FFFFFF" d="M268.634,189.779h-8.819l-2.329-5.79h-12.404l-2.369,5.79h-8.819l12.631-28.56h9.521L268.634,189.779z
		 M255.508,179.023l-4.183-10.427l-4.225,10.427H255.508z"/>
</g>
<g>
	<path fill="#FFFFFF" d="M9.874-59.923h5.611v7.082c-2.058,0.894-4.099,1.34-6.125,1.34c-2.768,0-4.979-0.808-6.633-2.423
		c-1.655-1.614-2.482-3.606-2.482-5.976c0-2.496,0.857-4.573,2.572-6.232C4.531-67.79,6.68-68.62,9.264-68.62
		c0.941,0,1.834,0.102,2.68,0.306c0.845,0.203,1.914,0.576,3.206,1.118v2.44c-1.994-1.156-3.972-1.734-5.934-1.734
		c-1.826,0-3.366,0.622-4.618,1.866s-1.878,2.771-1.878,4.582c0,1.897,0.626,3.449,1.878,4.653s2.863,1.806,4.833,1.806
		c0.957,0,2.102-0.219,3.434-0.657l0.227-0.072v-3.481H9.874V-59.923z"/>
	<path fill="#FFFFFF" d="M28.058-57.004h-7.74c0.056,1.053,0.409,1.89,1.059,2.513c0.65,0.621,1.49,0.933,2.518,0.933
		c1.436,0,2.76-0.446,3.972-1.34v2.13c-0.67,0.446-1.333,0.766-1.992,0.957c-0.658,0.191-1.429,0.287-2.315,0.287
		c-1.212,0-2.193-0.252-2.942-0.754c-0.75-0.503-1.35-1.179-1.801-2.028c-0.451-0.849-0.676-1.832-0.676-2.948
		c0-1.675,0.475-3.037,1.424-4.086c0.949-1.048,2.181-1.572,3.696-1.572c1.459,0,2.624,0.51,3.493,1.531
		c0.869,1.021,1.304,2.388,1.304,4.103V-57.004z M20.366-58.308h5.539c-0.056-0.869-0.315-1.539-0.777-2.01
		s-1.084-0.706-1.866-0.706s-1.422,0.235-1.92,0.706C20.842-59.847,20.517-59.177,20.366-58.308z"/>
	<path fill="#FFFFFF" d="M30.666-62.698v-0.658c0-1.771,0.377-3.09,1.13-3.959c0.754-0.87,1.657-1.305,2.71-1.305
		c0.454,0,0.993,0.072,1.615,0.216v2.129c-0.351-0.127-0.686-0.191-1.005-0.191c-0.854,0-1.446,0.228-1.776,0.683
		c-0.331,0.454-0.497,1.264-0.497,2.428v0.658h1.962v1.962h-1.962v9.044h-2.177v-9.044h-1.579v-1.962H30.666z"/>
	<path fill="#FFFFFF" d="M41.803-62.722c1.675,0,3.067,0.54,4.175,1.62c1.108,1.081,1.663,2.438,1.663,4.073
		c0,1.588-0.562,2.905-1.687,3.954s-2.54,1.573-4.247,1.573c-1.65,0-3.03-0.532-4.139-1.597c-1.109-1.065-1.663-2.395-1.663-3.99
		c0-1.61,0.56-2.952,1.681-4.025C38.707-62.186,40.112-62.722,41.803-62.722z M39.123-68.034c0.312,0,0.581,0.112,0.808,0.336
		c0.228,0.223,0.341,0.494,0.341,0.812c0,0.319-0.107,0.589-0.323,0.808c-0.215,0.22-0.479,0.329-0.79,0.329
		c-0.319,0-0.59-0.113-0.813-0.341s-0.335-0.496-0.335-0.808c0-0.318,0.109-0.588,0.329-0.808
		C38.559-67.924,38.82-68.034,39.123-68.034z M41.684-60.761c-1.045,0-1.902,0.344-2.572,1.029s-1.005,1.56-1.005,2.62
		c0,1.053,0.343,1.912,1.029,2.578s1.567,0.999,2.644,0.999c1.068,0,1.944-0.337,2.625-1.012c0.682-0.674,1.023-1.537,1.023-2.59
		c0-1.045-0.355-1.91-1.064-2.596C43.653-60.417,42.76-60.761,41.684-60.761z M43.729-68.034c0.311,0,0.58,0.112,0.808,0.336
		c0.227,0.223,0.341,0.494,0.341,0.812c0,0.319-0.108,0.589-0.323,0.808c-0.216,0.22-0.479,0.329-0.79,0.329
		c-0.319,0-0.59-0.113-0.813-0.341c-0.223-0.228-0.335-0.496-0.335-0.808c0-0.318,0.11-0.588,0.329-0.808
		C43.165-67.924,43.426-68.034,43.729-68.034z"/>
	<path fill="#FFFFFF" d="M52.39-62.698v2.524l0.12-0.191c1.053-1.699,2.105-2.548,3.158-2.548c0.821,0,1.679,0.414,2.572,1.244
		l-1.148,1.914c-0.757-0.719-1.459-1.077-2.105-1.077c-0.702,0-1.31,0.335-1.824,1.005c-0.514,0.67-0.771,1.464-0.771,2.381v5.754
		h-2.189v-11.006H52.39z"/>
	<path fill="#FFFFFF" d="M66.733-68.404h2.189v16.712h-4.654c-1.627,0-2.925-0.515-3.894-1.543c-0.969-1.029-1.454-2.409-1.454-4.14
		c0-1.619,0.508-2.95,1.525-3.995c1.017-1.045,2.315-1.567,3.894-1.567c0.733,0,1.531,0.155,2.393,0.467V-68.404z M66.733-53.559
		v-6.975c-0.678-0.343-1.364-0.515-2.058-0.515c-1.085,0-1.948,0.355-2.59,1.065s-0.963,1.667-0.963,2.871
		c0,1.132,0.279,2.006,0.837,2.62c0.335,0.366,0.69,0.613,1.064,0.741c0.375,0.128,1.049,0.191,2.022,0.191H66.733z"/>
	<path fill="#FFFFFF" d="M81.256-57.004h-7.74c0.056,1.053,0.409,1.89,1.059,2.513c0.65,0.621,1.49,0.933,2.518,0.933
		c1.436,0,2.76-0.446,3.972-1.34v2.13c-0.67,0.446-1.333,0.766-1.992,0.957c-0.658,0.191-1.429,0.287-2.315,0.287
		c-1.212,0-2.193-0.252-2.942-0.754c-0.75-0.503-1.35-1.179-1.801-2.028c-0.451-0.849-0.676-1.832-0.676-2.948
		c0-1.675,0.475-3.037,1.424-4.086c0.949-1.048,2.181-1.572,3.696-1.572c1.459,0,2.624,0.51,3.493,1.531
		c0.869,1.021,1.304,2.388,1.304,4.103V-57.004z M73.564-58.308h5.539c-0.056-0.869-0.315-1.539-0.777-2.01
		s-1.084-0.706-1.866-0.706s-1.422,0.235-1.92,0.706C74.041-59.847,73.715-59.177,73.564-58.308z"/>
	<path fill="#FFFFFF" d="M85.945-62.698v2.524l0.12-0.191c1.053-1.699,2.105-2.548,3.158-2.548c0.821,0,1.679,0.414,2.572,1.244
		l-1.148,1.914c-0.757-0.719-1.459-1.077-2.105-1.077c-0.702,0-1.31,0.335-1.824,1.005c-0.514,0.67-0.771,1.464-0.771,2.381v5.754
		h-2.189v-11.006H85.945z"/>
	<path fill="#FFFFFF" d="M92.262-60.952l4.091-4.02v2.273h3.481v1.962h-3.481v5.396c0,1.26,0.522,1.89,1.567,1.89
		c0.782,0,1.607-0.263,2.477-0.789v2.033c-0.837,0.471-1.75,0.706-2.739,0.706c-0.997,0-1.827-0.291-2.488-0.873
		c-0.208-0.176-0.379-0.373-0.515-0.593c-0.136-0.219-0.25-0.506-0.341-0.861c-0.092-0.354-0.138-1.03-0.138-2.027v-4.881h-1.914
		V-60.952z"/>
	<path fill="#FFFFFF" d="M115.514-62.698h2.361l-4.861,11.197h-0.737L107.3-62.698h2.383l2.971,6.771L115.514-62.698z"/>
	<path fill="#FFFFFF" d="M124.274-62.722c1.675,0,3.067,0.54,4.175,1.62c1.108,1.081,1.663,2.438,1.663,4.073
		c0,1.588-0.562,2.905-1.687,3.954s-2.54,1.573-4.247,1.573c-1.65,0-3.03-0.532-4.139-1.597c-1.109-1.065-1.663-2.395-1.663-3.99
		c0-1.61,0.56-2.952,1.681-4.025C121.178-62.186,122.584-62.722,124.274-62.722z M124.155-60.761c-1.045,0-1.902,0.344-2.572,1.029
		s-1.005,1.56-1.005,2.62c0,1.053,0.343,1.912,1.029,2.578s1.567,0.999,2.644,0.999c1.068,0,1.944-0.337,2.625-1.012
		c0.682-0.674,1.023-1.537,1.023-2.59c0-1.045-0.355-1.91-1.064-2.596C126.125-60.417,125.231-60.761,124.155-60.761z"/>
	<path fill="#FFFFFF" d="M134.707-62.698v1.399c0.973-1.076,2.078-1.614,3.314-1.614c0.686,0,1.323,0.177,1.914,0.532
		c0.59,0.354,1.038,0.841,1.346,1.459c0.307,0.618,0.461,1.597,0.461,2.937v6.293h-2.178v-6.269c0-1.124-0.172-1.928-0.515-2.41
		s-0.917-0.724-1.723-0.724c-1.028,0-1.901,0.514-2.62,1.543v7.859h-2.225v-11.006H134.707z"/>
	<path fill="#FFFFFF" d="M145.808-54.408c0.406,0,0.754,0.144,1.041,0.431s0.431,0.635,0.431,1.041c0,0.398-0.144,0.737-0.431,1.017
		s-0.635,0.419-1.041,0.419c-0.391,0-0.729-0.14-1.017-0.419s-0.431-0.618-0.431-1.017c0-0.406,0.14-0.754,0.418-1.041
		C145.058-54.265,145.402-54.408,145.808-54.408z M146-62.913c0.406,0,0.754,0.143,1.041,0.43s0.431,0.635,0.431,1.041
		c0,0.399-0.144,0.74-0.431,1.023s-0.635,0.424-1.041,0.424c-0.391,0-0.728-0.141-1.011-0.424s-0.425-0.624-0.425-1.023
		c0-0.406,0.14-0.754,0.419-1.041S145.601-62.913,146-62.913z"/>
</g>
</svg>
