<?xml version="1.0" encoding="utf-8"?>
<!-- Generator: Adobe Illustrator 16.0.3, SVG Export Plug-In . SVG Version: 6.00 Build 0)  -->
<!DOCTYPE svg PUBLIC "-//W3C//DTD SVG 1.1//EN" "http://www.w3.org/Graphics/SVG/1.1/DTD/svg11.dtd">
<svg version="1.1" xmlns="http://www.w3.org/2000/svg" xmlns:xlink="http://www.w3.org/1999/xlink" x="0px" y="0px" width="640px"
	 height="640px" viewBox="0 0 640 640" enable-background="new 0 0 640 640" xml:space="preserve">
<g id="Ebene_1">
	<g>
		<path fill="#808285" d="M180.414,168.949l-43.315-24.294l-12.684,7.61c-0.616,0.308-1.077,0.5-1.383,0.576
			c1.075,3.767,1.459,7.495,1.153,11.185c-0.539,5.92-2.691,11.588-6.457,17.007c-3.767,5.419-8.84,10.165-15.22,14.24
			c-10.146,6.457-20.794,9.686-31.938,9.686c-10.455,0-18.987-2.998-25.597-8.994c-6.918-6.457-9.954-14.413-9.109-23.868
			c0.537-5.841,2.69-11.49,6.457-16.949c3.765-5.457,8.801-10.222,15.104-14.297c10.146-6.457,20.83-9.686,32.054-9.686
			c6.38,0,12.183,1.193,17.411,3.575c0.692-0.999,1.537-1.845,2.537-2.537l14.067-8.417l-14.067-8.417
			c-1-0.692-1.845-1.537-2.537-2.537c-5.228,2.384-11.031,3.575-17.411,3.575c-11.224,0-21.907-3.229-32.054-9.686
			c-6.304-4.073-11.339-8.839-15.104-14.297c-3.767-5.457-5.92-11.107-6.457-16.95c-0.384-4.534,0.211-8.878,1.787-13.029
			c1.575-4.151,4.016-7.725,7.322-10.723c6.533-6.071,15.065-9.109,25.597-9.109c11.145,0,21.792,3.229,31.938,9.686
			c6.379,3.998,11.453,8.725,15.22,14.182c3.766,5.458,5.918,11.146,6.457,17.064c0.306,3.69-0.078,7.419-1.153,11.185
			c0.306,0.077,0.767,0.27,1.383,0.576l12.684,7.61l79.558-44.622c1.076-0.614,2.267-0.922,3.574-0.922
			c1.229,0,2.344,0.27,3.344,0.807l14.759,7.379c2.306,1.23,3.65,3.19,4.036,5.88c0.23,2.767-0.731,4.92-2.883,6.457l-58.458,45.89
			l19.404,15.233 M102.508,93.807c3.535-3.228,4.342-7.379,2.421-12.453c-1.922-5.073-5.996-9.57-12.222-13.49
			c-7.073-4.535-14.452-6.803-22.138-6.803c-5.689,0-10.031,1.384-13.029,4.151c-3.537,3.229-4.344,7.379-2.421,12.453
			c1.92,5.073,5.996,9.57,12.222,13.49c7.071,4.537,14.451,6.803,22.138,6.803C95.167,97.958,99.51,96.575,102.508,93.807z
			 M92.707,179.707c6.227-3.92,10.3-8.417,12.222-13.49c1.92-5.073,1.113-9.224-2.421-12.453c-2.998-2.767-7.341-4.151-13.029-4.151
			c-7.687,0-15.066,2.269-22.138,6.803c-6.227,3.92-10.302,8.417-12.222,13.491c-1.922,5.073-1.115,9.224,2.421,12.453
			c2.998,2.767,7.34,4.151,13.029,4.151C78.255,186.51,85.634,184.244,92.707,179.707z M139.059,134.855l11.069,3.689L234.99,72.13
			l-14.759-7.379l-88.552,49.695v13.029l-18.448,11.069l1.038,0.922c0.153,0.155,0.422,0.386,0.807,0.692
			c0.306,0.308,0.729,0.769,1.269,1.384c0.537,0.616,0.96,1.077,1.268,1.383l2.998,2.998L139.059,134.855z M113.231,109.027
			l11.069,6.688v-1.269c0-2.767,1.269-4.918,3.805-6.457l1.614-0.922l-9.109-5.419l-2.998,2.998
			c-0.23,0.231-0.616,0.654-1.153,1.269c-0.539,0.616-1,1.077-1.384,1.384c-0.155,0.155-0.308,0.288-0.461,0.403
			c-0.155,0.115-0.271,0.212-0.346,0.288L113.231,109.027z M141.249,118.597c1.459-1.459,3.189-2.19,5.189-2.19
			c1.998,0,3.728,0.731,5.188,2.19c1.459,1.461,2.191,3.191,2.191,5.188c0,2-0.731,3.729-2.191,5.189
			c-1.461,1.461-3.19,2.19-5.188,2.19c-2,0-3.729-0.729-5.189-2.19c-1.461-1.459-2.19-3.189-2.19-5.189
			C139.059,121.788,139.788,120.058,141.249,118.597z M193.552,142.929l-18.519-14.531l-20.408,15.912
			c-0.155,0.23-0.654,0.501-1.499,0.807l28.702,16.126"/>
	</g>
	<g>
		<g>
			<polyline fill="none" stroke="#808285" stroke-width="17" stroke-miterlimit="10" points="515.683,469.06 515.683,494.06 
				490.683,494.06 			"/>
			
				<line fill="none" stroke="#808285" stroke-width="17" stroke-miterlimit="10" stroke-dasharray="56.2722,56.2722" x1="434.41" y1="494.06" x2="237.458" y2="494.06"/>
			<polyline fill="none" stroke="#808285" stroke-width="17" stroke-miterlimit="10" points="209.322,494.06 184.322,494.06 
				184.322,469.06 			"/>
			
				<line fill="none" stroke="#808285" stroke-width="17" stroke-miterlimit="10" stroke-dasharray="42.5884,42.5884" x1="184.322" y1="426.471" x2="184.322" y2="192.235"/>
			<polyline fill="none" stroke="#808285" stroke-width="17" stroke-miterlimit="10" points="184.322,170.94 184.322,145.94 
				209.322,145.94 			"/>
			
				<line fill="none" stroke="#808285" stroke-width="17" stroke-miterlimit="10" stroke-dasharray="56.2722,56.2722" x1="265.594" y1="145.94" x2="462.547" y2="145.94"/>
			<polyline fill="none" stroke="#808285" stroke-width="17" stroke-miterlimit="10" points="490.683,145.94 515.683,145.94 
				515.683,170.94 			"/>
			
				<line fill="none" stroke="#808285" stroke-width="17" stroke-miterlimit="10" stroke-dasharray="42.5884,42.5884" x1="515.683" y1="213.529" x2="515.683" y2="447.766"/>
		</g>
	</g>
	<rect x="233.857" y="193.716" fill="#FFFFFF" width="232.289" height="185.536"/>
</g>
<g id="Bild">
	<g>
		<g>
			<path fill="#97B314" d="M475.683,206.887v159.194c0,5.761-2.051,10.69-6.152,14.794c-4.104,4.102-9.033,6.153-14.794,6.153
				H245.268c-5.761,0-10.692-2.052-14.794-6.153c-4.104-4.104-6.152-9.033-6.152-14.794V206.887c0-5.761,2.049-10.69,6.152-14.794
				c4.102-4.102,9.033-6.153,14.794-6.153h209.468c5.761,0,10.69,2.052,14.794,6.153
				C473.632,196.196,475.683,201.126,475.683,206.887z M454.736,202.697H245.268c-1.136,0-2.117,0.415-2.946,1.244
				c-0.83,0.83-1.243,1.812-1.243,2.945v159.194c0,1.136,0.413,2.117,1.243,2.946c0.829,0.83,1.811,1.243,2.946,1.243h209.468
				c1.134,0,2.115-0.413,2.945-1.243c0.829-0.829,1.244-1.811,1.244-2.946V206.887c0-1.134-0.415-2.115-1.244-2.945
				C456.852,203.112,455.87,202.697,454.736,202.697z M300.777,226.785c4.887,4.89,7.331,10.824,7.331,17.805
				c0,6.984-2.444,12.918-7.331,17.805c-4.889,4.89-10.823,7.332-17.805,7.332c-6.984,0-12.918-2.442-17.805-7.332
				c-4.889-4.887-7.332-10.82-7.332-17.805c0-6.98,2.443-12.915,7.332-17.805c4.887-4.887,10.82-7.33,17.805-7.33
				C289.954,219.455,295.888,221.898,300.777,226.785z M442.169,294.862v58.651H257.835v-25.137l41.895-41.893l20.945,20.946
				l67.032-67.03L442.169,294.862z"/>
		</g>
		<g>
			<path fill="#97B314" d="M224.322,437.302h96.354v16.758h-96.354V437.302z"/>
		</g>
		<g>
			<path fill="#97B314" d="M224.322,403.786h251.361v16.758H224.322V403.786z"/>
		</g>
	</g>
</g>
</svg>
