<?xml version="1.0" encoding="utf-8"?>
<!-- Generator: Adobe Illustrator 16.0.3, SVG Export Plug-In . SVG Version: 6.00 Build 0)  -->
<!DOCTYPE svg PUBLIC "-//W3C//DTD SVG 1.1//EN" "http://www.w3.org/Graphics/SVG/1.1/DTD/svg11.dtd">
<svg version="1.1" id="Ebene_4" xmlns="http://www.w3.org/2000/svg" xmlns:xlink="http://www.w3.org/1999/xlink" x="0px" y="0px"
	 width="640px" height="640px" viewBox="0 0 640 640" enable-background="new 0 0 640 640" xml:space="preserve">
<rect x="87.71" y="68.57" fill="#FFFFFF" width="232.29" height="185.535"/>
<rect x="87.71" y="319.123" fill="#FFFFFF" width="232.29" height="185.535"/>
<g>
	<path fill="#BF311A" d="M531.071,204.162c0,3.174-1.111,5.872-3.332,8.093l-16.188,16.187c-2.221,2.22-4.92,3.332-8.092,3.332
		c-3.174,0-5.873-1.112-8.094-3.332l-34.99-34.991l-34.99,34.991c-2.223,2.22-4.92,3.332-8.094,3.332s-5.873-1.112-8.092-3.332
		l-16.188-16.187c-2.221-2.221-3.332-4.919-3.332-8.093c0-3.173,1.111-5.871,3.332-8.094l34.992-34.99l-34.992-34.99
		c-2.221-2.221-3.332-4.919-3.332-8.093c0-3.173,1.111-5.871,3.332-8.094L409.2,93.716c2.219-2.221,4.918-3.333,8.092-3.333
		s5.871,1.112,8.094,3.333l34.99,34.99l34.99-34.99c2.221-2.221,4.92-3.333,8.094-3.333c3.172,0,5.871,1.112,8.092,3.333
		l16.188,16.186c2.221,2.223,3.332,4.921,3.332,8.094c0,3.174-1.111,5.872-3.332,8.093l-34.99,34.99l34.99,34.99
		C529.96,198.291,531.071,200.989,531.071,204.162z"/>
</g>
<g>
	<path fill="#008752" d="M562.612,368.807c0,3.174-1.111,5.872-3.332,8.093l-86.166,86.167l-16.188,16.187
		c-2.221,2.222-4.92,3.332-8.092,3.332c-3.174,0-5.873-1.11-8.094-3.332l-16.186-16.187l-43.084-43.083
		c-2.223-2.221-3.332-4.919-3.332-8.094c0-3.172,1.109-5.87,3.332-8.093l16.186-16.186c2.221-2.221,4.92-3.333,8.094-3.333
		c3.172,0,5.871,1.112,8.094,3.333l34.99,35.109l78.074-78.193c2.221-2.221,4.918-3.332,8.092-3.332s5.871,1.111,8.094,3.332
		l16.186,16.187C561.501,362.936,562.612,365.634,562.612,368.807z"/>
</g>
<g>
	<path fill="#97B314" d="M328.748,81.48v159.195c0,5.76-2.052,10.69-6.153,14.794c-4.104,4.101-9.033,6.152-14.793,6.152H98.334
		c-5.76,0-10.692-2.052-14.793-6.152c-4.104-4.104-6.153-9.034-6.153-14.794V81.48c0-5.76,2.05-10.689,6.153-14.793
		c4.101-4.102,9.033-6.153,14.793-6.153h209.467c5.76,0,10.69,2.052,14.793,6.153C326.696,70.791,328.748,75.721,328.748,81.48z
		 M307.801,77.292H98.334c-1.135,0-2.117,0.415-2.946,1.243c-0.831,0.831-1.244,1.813-1.244,2.945v159.195
		c0,1.135,0.413,2.117,1.244,2.945c0.829,0.831,1.811,1.244,2.946,1.244h209.467c1.133,0,2.115-0.413,2.945-1.244
		c0.829-0.828,1.244-1.811,1.244-2.945V81.48c0-1.133-0.416-2.114-1.244-2.945C309.917,77.707,308.935,77.292,307.801,77.292z
		 M153.843,101.38c4.887,4.89,7.331,10.823,7.331,17.805c0,6.984-2.444,12.918-7.331,17.805c-4.889,4.89-10.823,7.332-17.805,7.332
		c-6.984,0-12.918-2.442-17.805-7.332c-4.889-4.887-7.332-10.82-7.332-17.805c0-6.981,2.442-12.915,7.332-17.805
		c4.887-4.887,10.821-7.331,17.805-7.331C143.02,94.049,148.954,96.493,153.843,101.38z M295.233,169.457v58.65H110.902v-25.136
		l41.894-41.894l20.946,20.947l67.03-67.03L295.233,169.457z"/>
</g>
<g>
	<path fill="#97B314" d="M328.748,332.292v159.195c0,5.76-2.052,10.69-6.153,14.794c-4.104,4.102-9.033,6.153-14.793,6.153H98.334
		c-5.76,0-10.692-2.052-14.793-6.153c-4.104-4.104-6.153-9.034-6.153-14.794V332.292c0-5.76,2.05-10.689,6.153-14.793
		c4.101-4.102,9.033-6.153,14.793-6.153h209.467c5.76,0,10.69,2.052,14.793,6.153C326.696,321.603,328.748,326.532,328.748,332.292z
		 M307.801,328.104H98.334c-1.135,0-2.117,0.415-2.946,1.243c-0.831,0.831-1.244,1.813-1.244,2.945v159.195
		c0,1.135,0.413,2.117,1.244,2.945c0.829,0.831,1.811,1.244,2.946,1.244h209.467c1.133,0,2.115-0.413,2.945-1.244
		c0.829-0.828,1.244-1.811,1.244-2.945V332.292c0-1.133-0.416-2.114-1.244-2.945C309.917,328.519,308.935,328.104,307.801,328.104z
		 M153.843,352.191c4.887,4.89,7.331,10.823,7.331,17.805c0,6.984-2.444,12.918-7.331,17.805c-4.889,4.89-10.823,7.332-17.805,7.332
		c-6.984,0-12.918-2.442-17.805-7.332c-4.889-4.887-7.332-10.82-7.332-17.805c0-6.981,2.442-12.915,7.332-17.805
		c4.887-4.887,10.821-7.331,17.805-7.331C143.02,344.86,148.954,347.305,153.843,352.191z M295.233,420.269v58.65H110.902v-25.136
		l41.894-41.894l20.946,20.947l67.03-67.03L295.233,420.269z"/>
</g>
<g>
	<path fill="#97B314" d="M77.388,562.708h96.354v16.758H77.388V562.708z"/>
</g>
<g>
	<path fill="#97B314" d="M77.388,529.192h251.36v16.758H77.388V529.192z"/>
</g>
</svg>
