<?xml version="1.0" encoding="UTF-8" standalone="no"?>
<svg width="22px" height="22px" viewBox="0 0 22 22" version="1.1" xmlns="http://www.w3.org/2000/svg" xmlns:xlink="http://www.w3.org/1999/xlink">
    <!-- Generator: Sketch 47.1 (45422) - http://www.bohemiancoding.com/sketch -->
    <title>Icon Sprache neu</title>
    <desc>Created with Sketch.</desc>
    <defs></defs>
    <g id="Page-1" stroke="none" stroke-width="1" fill="none" fill-rule="evenodd" stroke-linecap="round" stroke-linejoin="round">
        <g id="Start-Sprachwechsel-alternativ" transform="translate(-514.000000, -417.000000)" stroke="#FFFFFF">
            <g id="Button-Sprachwechsel-hover" transform="translate(499.000000, 408.000000)">
                <g id="Icon-Sprache-neu" transform="translate(15.000000, 9.000000)">
                    <path d="M20.75,10.75 C20.75,16.272 16.272,20.75 10.75,20.75 C5.228,20.75 0.75,16.272 0.75,10.75 C0.75,5.228 5.228,0.75 10.75,0.75 C16.272,0.75 20.75,5.228 20.75,10.75 Z" id="Stroke-1" stroke-width="1.5"></path>
                    <path d="M15.75,10.75 C15.75,16.272 13.512,20.75 10.75,20.75 C7.988,20.75 5.75,16.272 5.75,10.75 C5.75,5.228 7.988,0.75 10.75,0.75 C13.512,0.75 15.75,5.228 15.75,10.75 Z" id="Stroke-3"></path>
                    <path d="M2.25,6.25 L19.25,6.25" id="Stroke-5"></path>
                    <path d="M2.25,15.25 L19.25,15.25" id="Stroke-7"></path>
                </g>
            </g>
        </g>
    </g>
</svg>