<?xml version="1.0" encoding="UTF-8" standalone="no"?>
<svg width="22px" height="22px" viewBox="0 0 22 22" version="1.1" xmlns="http://www.w3.org/2000/svg" xmlns:xlink="http://www.w3.org/1999/xlink">
    <!-- Generator: Sketch 47.1 (45422) - http://www.bohemiancoding.com/sketch -->
    <title>Icon Lizenz</title>
    <desc>Created with Sketch.</desc>
    <defs></defs>
    <g id="Page-1" stroke="none" stroke-width="1" fill="none" fill-rule="evenodd" stroke-linecap="round" stroke-linejoin="round">
        <g id="Ergebnisseite" transform="translate(-667.000000, -771.000000)" stroke-width="1.5" stroke="#97B314">
            <g id="Link-Lizenztext" transform="translate(668.000000, 772.000000)">
                <g id="Icon-Lizenz">
                    <path d="M20,10 C20,15.523 15.522,20 10,20 C4.478,20 0,15.523 0,10 C0,4.478 4.478,0 10,0 C15.522,0 20,4.478 20,10 Z" id="Stroke-1"></path>
                    <g id="Group" transform="translate(4.000000, 8.000000)">
                        <path d="M4.36307692,0.836923077 C3.90538462,0.324615385 3.24153846,0 2.5,0 C1.11923077,0 0,1.11923077 0,2.5 C0,3.88076923 1.11923077,5 2.5,5 C3.24153846,5 3.90538462,4.67576923 4.36307692,4.16346154" id="Stroke-3"></path>
                        <path d="M11.3630769,0.836923077 C10.9053846,0.324615385 10.2415385,0 9.5,0 C8.11923077,0 7,1.11923077 7,2.5 C7,3.88076923 8.11923077,5 9.5,5 C10.2415385,5 10.9053846,4.67576923 11.3630769,4.16346154" id="Stroke-3"></path>
                    </g>
                </g>
            </g>
        </g>
    </g>
</svg>