<?xml version="1.0" encoding="utf-8"?>
<!-- Generator: Adobe Illustrator 19.2.1, SVG Export Plug-In . SVG Version: 6.00 Build 0)  -->
<svg version="1.1" id="Ebene_1" xmlns="http://www.w3.org/2000/svg" xmlns:xlink="http://www.w3.org/1999/xlink" x="0px" y="0px"
	 viewBox="0 100 1133.9 316.9" style="enable-background:new 0 0 1133.9 316.9;" xml:space="preserve">
<style type="text/css">
	.st0{fill:#FFFFFF;}
</style>
<g>
	<path class="st0" d="M332.5,228.9l16.9-54.7h22.2l16.7,54.7l18.9-54.7h23L397,269.3h-15.8l-20.8-66.1l-20.7,66.1H324l-33.2-95.1h23
		L332.5,228.9z"/>
	<path class="st0" d="M441.5,174.2h21.2v95.1h-21.2V174.2z"/>
	<path class="st0" d="M486.2,174.2h21.2v39.1l35.9-39.1h26.3l-37.8,42c3.3,4.5,9.3,13,18.1,25.4c8.8,12.4,15.4,21.6,19.7,27.7h-24.8
		l-27.9-37.6l-9.5,10.6v26.9h-21.2V174.2z"/>
	<path class="st0" d="M582.8,174.2H604v95.1h-21.2V174.2z"/>
	<path class="st0" d="M712.6,209.4l-25.7,52h-12.7l-25.6-52v59.9h-21.2v-95.1h28.7l24.5,52.2l24.6-52.2h28.6v95.1h-21.2V209.4z"/>
	<path class="st0" d="M825.8,174.2v18.9h-47.4v19.6H821v18.1h-42.6v19.7h48.8v18.8h-70.1v-95.1H825.8z"/>
	<path class="st0" d="M918.8,186.6c9.1,8.3,13.6,19.8,13.6,34.6c0,14.8-4.4,26.5-13.3,35.1c-8.8,8.6-22.3,12.9-40.5,12.9h-32.5
		v-95.1h33.6C896.8,174.2,909.8,178.3,918.8,186.6z M903.3,243.2c5.2-4.9,7.8-12,7.8-21.4c0-9.3-2.6-16.5-7.8-21.6
		c-5.2-5-13.2-7.6-24-7.6h-11.8v57.8h13.5C890.6,250.5,898,248,903.3,243.2z"/>
	<path class="st0" d="M950.8,174.2H972v95.1h-21.2V174.2z"/>
	<path class="st0" d="M1063.2,269.3l-8.8-20.5h-39.9l-8.8,20.5h-22.6l41.1-95.1h20.5l41.1,95.1H1063.2z M1034.5,202.5l-12,27.6h23.8
		L1034.5,202.5z"/>
</g>
<g>
	<path class="st0" d="M354,311.3c4,3.6,6,8.7,6,15.2s-1.9,11.6-5.8,15.4c-3.9,3.8-9.8,5.7-17.9,5.7h-13.8v-41.6h14.3
		C344.2,305.8,349.9,307.7,354,311.3z M352.9,326.6c0-9.5-5.5-14.3-16.4-14.3h-7v28.5h7.8c5,0,8.9-1.2,11.6-3.6
		C351.5,334.8,352.9,331.3,352.9,326.6z"/>
	<path class="st0" d="M425.4,305.8v6.6h-22.2v11h19.9v6.3h-19.9v11.1h22.9v6.6h-29.9v-41.6H425.4z"/>
	<path class="st0" d="M471.7,337.9c1.9,2.2,4.5,3.3,7.7,3.3c3.3,0,5.8-1.1,7.7-3.3c1.9-2.2,2.9-5.2,2.9-9v-23h7v23.3
		c0,6-1.6,10.6-4.9,13.8c-3.3,3.2-7.5,4.9-12.7,4.9c-5.2,0-9.4-1.6-12.7-4.9c-3.3-3.2-4.9-7.8-4.9-13.8v-23.3h7v23
		C468.8,332.7,469.8,335.7,471.7,337.9z"/>
	<path class="st0" d="M551,312.3v35.2h-7v-35.2h-12.6v-6.4h32.3v6.4H551z"/>
	<path class="st0" d="M611,311.3c-2,0-3.7,0.4-5,1.2c-1.3,0.8-2,2.1-2,3.8s0.7,3,2,3.9c1.3,0.9,4.1,1.9,8.4,2.9
		c4.3,1,7.5,2.5,9.6,4.3c2.2,1.9,3.2,4.6,3.2,8.2c0,3.6-1.4,6.6-4.1,8.8s-6.3,3.4-10.8,3.4c-6.5,0-12.3-2.2-17.3-6.7l4.4-5.3
		c4.2,3.7,8.6,5.5,13.1,5.5c2.3,0,4.1-0.5,5.4-1.5c1.3-1,2-2.3,2-3.9c0-1.6-0.6-2.9-1.9-3.8c-1.2-0.9-3.4-1.7-6.5-2.4
		c-3.1-0.7-5.4-1.4-7-2c-1.6-0.6-3-1.4-4.2-2.4c-2.5-1.9-3.7-4.7-3.7-8.6s1.4-6.8,4.2-8.9c2.8-2.1,6.3-3.1,10.4-3.1
		c2.7,0,5.3,0.4,7.9,1.3c2.6,0.9,4.9,2.1,6.8,3.7l-3.8,5.3c-1.2-1.1-2.9-2-5-2.7C615.1,311.7,613.1,311.3,611,311.3z"/>
	<path class="st0" d="M682.1,341.1c2.4,0,4.5-0.4,6.3-1.2c1.7-0.8,3.6-2.1,5.5-3.9l4.5,4.6c-4.4,4.9-9.8,7.3-16,7.3
		c-6.3,0-11.5-2-15.7-6.1c-4.1-4-6.2-9.2-6.2-15.4c0-6.2,2.1-11.3,6.3-15.5c4.2-4.1,9.6-6.2,16-6.2s11.8,2.4,16.2,7.1l-4.5,4.9
		c-2-1.9-3.9-3.2-5.6-4c-1.8-0.8-3.8-1.1-6.2-1.1c-4.2,0-7.7,1.4-10.6,4.1c-2.9,2.7-4.3,6.2-4.3,10.4s1.4,7.8,4.3,10.6
		C674.9,339.7,678.2,341.1,682.1,341.1z"/>
	<path class="st0" d="M734.2,347.5v-41.6h7v18h20.7v-18h7v41.6h-7v-17h-20.7v17H734.2z"/>
	<path class="st0" d="M807.6,347.5v-41.6h7v34.9h19v6.7H807.6z"/>
	<path class="st0" d="M874.4,338l-4.2,9.5h-7.5l18.3-41.6h7.5l18.3,41.6h-7.5l-4.2-9.5H874.4z M892.4,331.5l-7.6-17.1l-7.6,17.1
		H892.4z"/>
	<path class="st0" d="M971.1,305.8h7v41.6h-7.6l-23.6-30.4v30.4h-7v-41.6h7l24.2,31.1V305.8z"/>
	<path class="st0" d="M1048.4,311.3c4,3.6,6,8.7,6,15.2s-1.9,11.6-5.8,15.4c-3.9,3.8-9.8,5.7-17.9,5.7h-13.8v-41.6h14.3
		C1038.6,305.8,1044.3,307.7,1048.4,311.3z M1047.3,326.6c0-9.5-5.5-14.3-16.4-14.3h-7v28.5h7.8c5,0,8.9-1.2,11.6-3.6
		S1047.3,331.3,1047.3,326.6z"/>
</g>
<g>
	<path class="st0" d="M141.3,322.3c35.8-5.1,63.4-35.8,63.4-73c0-22.6-10.2-42.8-26.2-56.4l-37.2,37.2V322.3z"/>
	<path class="st0" d="M120.5,322.3v-92.2l-37.2-37.2c-16,13.5-26.2,33.8-26.2,56.4C57.1,286.5,84.7,317.3,120.5,322.3z"/>
	<path class="st0" d="M195.1,185.2c17.1,17.1,26.6,39.9,26.6,64.1s-9.4,47-26.6,64.1c-17.1,17.1-39.9,26.6-64.1,26.6
		s-47-9.4-64.1-26.6s-26.6-39.9-26.6-64.1c0-24.2,9.4-47,26.6-64.1c1.5-1.5,3-2.9,4.5-4.2l-20.7-20.7c-1.5,1.4-3,2.8-4.5,4.3
		c-11,11-19.7,23.8-25.7,38.1c-6.3,14.8-9.4,30.5-9.4,46.7c0,16.2,3.2,31.9,9.4,46.7c6,14.3,14.7,27.1,25.7,38.1
		c11,11,23.8,19.7,38.1,25.7c14.8,6.3,30.5,9.4,46.7,9.4c16.2,0,31.9-3.2,46.7-9.4c14.3-6,27.1-14.7,38.1-25.7
		c11-11,19.7-23.8,25.7-38.1c6.3-14.8,9.4-30.5,9.4-46.7c0-16.2-3.2-31.9-9.4-46.7c-6-14.3-14.7-27.1-25.7-38.1
		c-1.5-1.5-3-2.9-4.5-4.3l-20.7,20.7C192.1,182.3,193.6,183.7,195.1,185.2z"/>
	<circle id="red_circle_3_" class="st0" cx="130.9" cy="166.1" r="37.4"/>
</g>
</svg>
