<?xml version="1.0" encoding="utf-8"?>
<!-- Generator: Adobe Illustrator 15.1.0, SVG Export Plug-In  -->
<!DOCTYPE svg PUBLIC "-//W3C//DTD SVG 1.1//EN" "http://www.w3.org/Graphics/SVG/1.1/DTD/svg11.dtd" [
	<!ENTITY ns_flows "http://ns.adobe.com/Flows/1.0/">
]>
<svg version="1.1"
	 xmlns="http://www.w3.org/2000/svg" xmlns:xlink="http://www.w3.org/1999/xlink" xmlns:a="http://ns.adobe.com/AdobeSVGViewerExtensions/3.0/"
	 x="0px" y="0px" width="488px" height="143px" viewBox="-0.3 0 488 143"
	 overflow="visible" enable-background="new -0.3 0 488 143" xml:space="preserve">
<defs>
</defs>
<circle fill="#FFFFFF" cx="71" cy="23.7" r="23.7"/>
<path fill="#FFFFFF" d="M66.3,61.4l-23-23C34.1,46.3,28.2,58,28.2,71c0,22.1,16.7,40.2,38.1,42.5V61.4z"/>
<path fill="#FFFFFF" d="M98.7,38.5l-23,23v52.2c21.4-2.4,38-20.5,38-42.5C113.8,58,108,46.3,98.7,38.5z"/>
<path fill="#FFFFFF" d="M118.7,18.5l-13.6,13.6c10.8,9.5,17.7,23.4,17.7,39c0,28.6-23.2,51.8-51.8,51.8c-28.6,0-51.8-23.2-51.8-51.8
	c0-15.6,6.9-29.5,17.7-39L23.3,18.4C9,31.4,0,50.2,0,71c0,39.2,31.8,71,71,71s71-31.8,71-71C142,50.2,133,31.5,118.7,18.5z"/>
<path fill="#FFFFFF" d="M232.9,40.5l-14.4,33.6h-5.8l-8.6-19.6l-8.8,19.6h-5.8l-14.1-33.6h10.4l6.9,18.4l7.9-18.4h7.2l7.8,18.4
	l7.2-18.4H232.9z"/>
<path fill="#FFFFFF" d="M247.5,73.7h-10V40.5h10V73.7z"/>
<path fill="#FFFFFF" d="M290.8,73.7h-12.2l-12.7-15.5v15.5h-10V40.5h10v14.8l12-14.8h10.9l-12.3,15.5L290.8,73.7z"/>
<path fill="#FFFFFF" d="M305.2,73.7h-10V40.5h10V73.7z"/>
<path fill="#FFFFFF" d="M352.2,73.7h-10V54.5l-9,11.1h-0.8l-9-11.1v19.2h-9.7V40.5h9.1L332.9,53l10.2-12.4h9.1V73.7z"/>
<path fill="#FFFFFF" d="M385.6,73.7h-25V40.5h24.6v6.7h-14.6v6.1h13.9V60h-13.9V67h15V73.7z"/>
<path fill="#FFFFFF" d="M426.4,57.7c0,3.4-0.6,6.1-1.9,8.2c-1.2,2.1-2.7,3.7-4.4,5c-2.4,1.9-5.7,2.8-10,2.8h-17.9V40.5h13.8
	c2.1,0,3.8,0.1,5.3,0.3c1.5,0.2,2.8,0.5,4,0.9c1.2,0.4,2.2,0.8,3,1.3c0.8,0.5,1.6,1,2.2,1.6c1.1,0.9,2.1,2,3,3.3
	c0.9,1.3,1.5,2.7,2,4.4C426.1,54,426.4,55.8,426.4,57.7z M416.2,57.3c0-2.7-0.5-4.8-1.5-6.3s-2.3-2.5-3.7-3s-2.9-0.8-4.4-0.8h-4.3
	v19.6h4.3c2.6,0,4.9-0.6,6.8-1.9C415.2,63.7,416.2,61.2,416.2,57.3z"/>
<path fill="#FFFFFF" d="M442.6,73.7h-10V40.5h10V73.7z"/>
<path fill="#FFFFFF" d="M487.4,73.7h-10.2l-2.7-6.7H460l-2.8,6.7H447l14.7-33.2h11.1L487.4,73.7z M472.2,61.2l-4.9-12.1l-4.9,12.1
	H472.2z"/>
<path fill="#FFFFFF" d="M199.3,97.5c0,2-0.4,3.7-1.1,4.9c-0.7,1.2-1.6,2.2-2.6,3c-1.4,1.1-3.4,1.7-6,1.7h-10.7V87.2h8.3
	c1.2,0,2.3,0.1,3.2,0.2s1.7,0.3,2.4,0.5s1.3,0.5,1.8,0.8c0.5,0.3,0.9,0.6,1.3,0.9c0.7,0.6,1.3,1.2,1.8,2c0.5,0.8,0.9,1.6,1.2,2.6
	C199.1,95.3,199.3,96.3,199.3,97.5z M193.2,97.3c0-1.6-0.3-2.9-0.9-3.8c-0.6-0.9-1.4-1.5-2.2-1.8c-0.9-0.3-1.7-0.5-2.6-0.5h-2.6V103
	h2.6c1.6,0,2.9-0.4,4.1-1.1C192.6,101.1,193.2,99.6,193.2,97.3z"/>
<path fill="#FFFFFF" d="M217.9,107.1h-15V87.2h14.7v4h-8.7v3.6h8.3v4h-8.3v4.2h9V107.1z"/>
<path fill="#FFFFFF" d="M242.6,98.2c0,1.7-0.3,3.2-1,4.3c-0.6,1.2-1.5,2.1-2.5,2.8c-1,0.7-2.2,1.2-3.4,1.5c-1.2,0.3-2.4,0.5-3.6,0.5
	c-1.7,0-3.3-0.3-4.9-0.9c-1.6-0.6-2.9-1.5-4-2.9c-1.1-1.4-1.6-3.2-1.6-5.4v-11h6v9.4c0,1.3,0.2,2.4,0.6,3.2c0.4,0.9,0.9,1.5,1.6,1.9
	s1.5,0.6,2.4,0.6c0.9,0,1.7-0.2,2.3-0.6c0.7-0.4,1.2-1,1.6-1.9c0.4-0.8,0.6-1.9,0.6-3.2v-9.4h6V98.2z"/>
<path fill="#FFFFFF" d="M266.4,92h-7.3v15h-6V92h-7.3v-4.8h20.5V92z"/>
<path fill="#FFFFFF" d="M283.8,101.3c0,1.2-0.3,2.3-1,3.2c-0.6,0.9-1.5,1.6-2.7,2.1s-2.4,0.7-3.9,0.7c-0.4,0-0.9,0-1.5-0.1
	c-0.6-0.1-1.4-0.2-2.4-0.4c-1-0.2-2-0.6-3.1-1.1v-4.9c1,0.6,2,1.1,3,1.5c1,0.4,2,0.6,3.1,0.6c1,0,1.7-0.2,2-0.5
	c0.3-0.3,0.5-0.7,0.5-1c0-0.5-0.3-1-0.8-1.4c-0.5-0.4-1.3-0.7-2.3-1.1c-1.1-0.5-2-1-2.9-1.5c-0.8-0.5-1.5-1.2-2-2
	c-0.5-0.8-0.8-1.8-0.8-2.9c0-1.1,0.3-2,0.8-2.9c0.5-0.9,1.3-1.6,2.4-2.1s2.4-0.8,4-0.8c1.1,0,2.1,0.1,3.1,0.3
	c0.9,0.2,1.7,0.5,2.3,0.7s1,0.5,1.3,0.6v4.7c-0.8-0.6-1.7-1.1-2.7-1.6c-1-0.5-2.1-0.7-3.2-0.7c-0.7,0-1.3,0.1-1.6,0.4
	c-0.3,0.3-0.5,0.6-0.5,1.1c0,0.4,0.2,0.7,0.5,1c0.3,0.3,0.9,0.6,1.8,1c1.5,0.7,2.8,1.4,3.7,1.9c0.9,0.6,1.6,1.2,2.2,2
	S283.8,100.2,283.8,101.3z"/>
<path fill="#FFFFFF" d="M305.6,105.6c-0.8,0.4-1.7,0.8-2.5,1s-1.7,0.4-2.6,0.6c-0.9,0.1-1.8,0.2-2.7,0.2c-1.7,0-3.3-0.2-4.7-0.7
	c-1.4-0.5-2.6-1.2-3.6-2.1s-1.8-2-2.3-3.3c-0.5-1.2-0.8-2.6-0.8-4.1c0-1.7,0.3-3.2,0.9-4.5c0.6-1.3,1.4-2.4,2.5-3.2
	c1.1-0.9,2.3-1.5,3.6-1.9c1.4-0.4,2.8-0.6,4.3-0.6c2.3,0,4.8,0.5,7.7,1.5v5.3c-1-0.6-2-1.1-2.9-1.5c-1-0.4-2.1-0.6-3.4-0.6
	c-1.2,0-2.2,0.2-3.2,0.7c-1,0.5-1.8,1.1-2.4,2s-0.9,1.8-0.9,3c0,1,0.3,1.9,0.8,2.8c0.5,0.8,1.3,1.5,2.2,2c0.9,0.5,2,0.7,3.2,0.7
	c1,0,1.9-0.1,2.7-0.4c0.9-0.2,1.6-0.5,2.2-0.8s1.2-0.6,1.8-1V105.6z"/>
<path fill="#FFFFFF" d="M330.6,107.1h-6v-7.8h-9v7.8h-6V87.2h6v7.3h9v-7.3h6V107.1z"/>
<path fill="#FFFFFF" d="M350.7,107.1h-15.1V87.2h6v15.1h9.1V107.1z"/>
<path fill="#FFFFFF" d="M375.6,107.1h-6.1l-1.6-4h-8.6l-1.6,4h-6.1l8.8-19.9h6.6L375.6,107.1z M366.5,99.6l-2.9-7.3l-2.9,7.3H366.5z
	"/>
<path fill="#FFFFFF" d="M399.8,107.1h-5.3L384.2,96v11.1h-5.9V87.2h5.3l10.3,11v-11h6V107.1z"/>
<path fill="#FFFFFF" d="M425.2,97.5c0,2-0.4,3.7-1.1,4.9c-0.7,1.2-1.6,2.2-2.6,3c-1.4,1.1-3.4,1.7-6,1.7h-10.7V87.2h8.3
	c1.2,0,2.3,0.1,3.2,0.2c0.9,0.1,1.7,0.3,2.4,0.5s1.3,0.5,1.8,0.8c0.5,0.3,0.9,0.6,1.3,0.9c0.7,0.6,1.3,1.2,1.8,2
	c0.5,0.8,0.9,1.6,1.2,2.6C425.1,95.3,425.2,96.3,425.2,97.5z M419.1,97.3c0-1.6-0.3-2.9-0.9-3.8c-0.6-0.9-1.4-1.5-2.2-1.8
	c-0.9-0.3-1.7-0.5-2.6-0.5h-2.6V103h2.6c1.6,0,2.9-0.4,4.1-1.1C418.6,101.1,419.1,99.6,419.1,97.3z"/>
</svg>
